<svg id="Capa_1" data-name="Capa 1" xmlns="http://www.w3.org/2000/svg" viewBox="0 0 164.07 131.1"><defs><style>.cls-1,.cls-4{fill:#005680;}.cls-2{fill:#f2ba01;}.cls-2,.cls-4,.cls-5{fill-rule:evenodd;}.cls-3,.cls-5,.cls-6{fill:#ed7203;}.cls-5,.cls-6{stroke:#ed7203;stroke-linecap:round;stroke-linejoin:round;stroke-width:0.08px;}</style></defs><path class="cls-1" d="M102.18,27.23H89.63v1h1.25a4.15,4.15,0,0,1,2.85.87c.66.58,1,2,1,4.4V54.4L72.67,27.23H62.88v.1H44.22V29h2.33a7,7,0,0,1,4.86,1.57c1.15,1,1.73,3.63,1.73,7.77V63.6q0,10.7-2.06,14.78a14.5,14.5,0,0,1-6.87,6.44,23.07,23.07,0,0,1-10.28,2.35,17.15,17.15,0,0,1-9.44-2.38,12.61,12.61,0,0,1-5.21-7,41.15,41.15,0,0,1-1.49-12.31V38.37c0-4,.62-6.61,1.84-7.7A7,7,0,0,1,24.42,29h2.39v-1.7H0V29H2.32q4.17,0,5.43,2.28C8.59,32.84,9,35.18,9,38.37V62.7q0,11.07,1.8,16.38a16,16,0,0,0,7.58,8.67q5.78,3.36,15,3.36,9.51,0,15.18-3.78a16.36,16.36,0,0,0,7.19-9.57A54.5,54.5,0,0,0,57.27,64V38.71c0-3.48.52-6,1.54-7.44s2.71-2.24,5-2.24h2.32v-.17l.4.18A12.11,12.11,0,0,1,70,32V57.17c0,2.39-.37,3.87-1.11,4.43a4.33,4.33,0,0,1-2.76.85H64.88v1H77.44v-1H76.16a4.25,4.25,0,0,1-2.85-.85c-.65-.58-1-2.05-1-4.43V34.88L95.77,63.6l1.32-4.27V33.5a8,8,0,0,1,.76-4.14c.49-.75,1.52-1.13,3.07-1.13h1.26Z"/><path class="cls-2" d="M119,27H107L97.09,59.33,95.77,63.6l-.13.43h9.18L107,56.74h9.87L119,64h11.55ZM109,48.67l3-10.73,3,10.73Z"/><path class="cls-2" d="M145.42,27H131.17V64h15A17,17,0,0,0,159,58.84q4.95-5.18,4.95-13.48a19.41,19.41,0,0,0-4.61-12.79Q154.71,27.05,145.42,27Zm-2.95,28.48V35.44h2.95a5.46,5.46,0,0,1,5,2.93,13.55,13.55,0,0,1,1.71,7,12.8,12.8,0,0,1-1.93,7.46,5.67,5.67,0,0,1-4.74,2.73Z"/><path class="cls-3" d="M58,14.53a4.82,4.82,0,1,0,4.8,4.81A4.8,4.8,0,0,0,58,14.53Z"/><path class="cls-3" d="M47.93,4.45a4.82,4.82,0,1,0,4.8,4.82A4.8,4.8,0,0,0,47.93,4.45Z"/><path class="cls-3" d="M32.75,0a4.82,4.82,0,1,0,4.8,4.82A4.81,4.81,0,0,0,32.75,0Z"/><path class="cls-3" d="M17.6,4.45a4.82,4.82,0,1,0,4.79,4.82A4.8,4.8,0,0,0,17.6,4.45Z"/><path class="cls-3" d="M7.54,14.53a4.82,4.82,0,1,0,4.8,4.81A4.8,4.8,0,0,0,7.54,14.53Z"/><path class="cls-3" d="M155,67.45a4.82,4.82,0,1,0,4.8,4.81A4.8,4.8,0,0,0,155,67.45Z"/><path class="cls-3" d="M144.88,77.52a4.82,4.82,0,1,0,4.8,4.82A4.81,4.81,0,0,0,144.88,77.52Z"/><path class="cls-3" d="M129.71,82a4.82,4.82,0,1,0,4.8,4.82A4.81,4.81,0,0,0,129.71,82Z"/><path class="cls-3" d="M114.55,77.52a4.82,4.82,0,1,0,4.8,4.82A4.82,4.82,0,0,0,114.55,77.52Z"/><path class="cls-3" d="M104.49,67.45a4.82,4.82,0,1,0,4.8,4.81A4.81,4.81,0,0,0,104.49,67.45Z"/><path class="cls-1" d="M10.23,97.12H8.89v8.4A3.5,3.5,0,0,1,8.13,108a3,3,0,0,1-2.25.78,3.89,3.89,0,0,1-1.47-.29,2.13,2.13,0,0,1-1.05-.9A4.48,4.48,0,0,1,3,105.52v-8.4H1.4v8.4a5,5,0,0,0,1.08,3.58,4.3,4.3,0,0,0,3.29,1.13A4.65,4.65,0,0,0,9,109.14a4.66,4.66,0,0,0,1.24-3.62Z"/><path class="cls-1" d="M17,100.21a3.4,3.4,0,0,0-3,2v-1.74H12.69V110h1.47v-5.21a3.54,3.54,0,0,1,.76-2.38,2.4,2.4,0,0,1,1.89-.91,2,2,0,0,1,1.39.54,2.48,2.48,0,0,1,.57,1.85V110h1.38v-5.49a7.41,7.41,0,0,0-.28-2.49,2.94,2.94,0,0,0-1-1.24A3,3,0,0,0,17,100.21Z"/><path class="cls-4" d="M24.28,97.12H22.7v1.65h1.58Zm-.05,3.35H22.76V110h1.47Z"/><polygon class="cls-1" points="33.78 100.47 32.48 100.47 29.87 108.19 27.23 100.47 25.6 100.47 28.99 109.97 30.51 109.97 33.78 100.47"/><path class="cls-4" d="M38.51,100.21a4,4,0,0,0-3.13,1.39,5.34,5.34,0,0,0-1.25,3.67,5.24,5.24,0,0,0,1.2,3.59,4,4,0,0,0,3.14,1.37,4.23,4.23,0,0,0,2.56-.79,3.9,3.9,0,0,0,1.46-2l-1.36-.28A2.62,2.62,0,0,1,38.57,109a3,3,0,0,1-1.9-.76,3.7,3.7,0,0,1-.9-2.91h6.88a5.79,5.79,0,0,0-1.16-3.86A3.78,3.78,0,0,0,38.51,100.21Zm-2.67,4a3.33,3.33,0,0,1,.85-2.13,2.5,2.5,0,0,1,1.87-.79,2.24,2.24,0,0,1,1.39.44,2.43,2.43,0,0,1,.83,1.06,4.13,4.13,0,0,1,.26,1.42Z"/><path class="cls-1" d="M48.62,100.18a2.51,2.51,0,0,0-1.42.47,4.88,4.88,0,0,0-1.37,2v-2.22H44.54V110H46v-5a3.77,3.77,0,0,1,.87-2.4,2.6,2.6,0,0,1,2-.91h.3v-1.41C49,100.2,48.77,100.18,48.62,100.18Z"/><path class="cls-1" d="M53.26,100.21a3.78,3.78,0,0,0-2.55.8,2.51,2.51,0,0,0-.94,2,2.3,2.3,0,0,0,.69,1.75,3.6,3.6,0,0,0,1.86.88l2,.38c1.08.2,1.62.68,1.62,1.43a1.28,1.28,0,0,1-.64,1.15,2.74,2.74,0,0,1-1.55.43c-1.67,0-2.65-.61-3-1.81l-1.42.3q.81,2.71,4.17,2.72a4.67,4.67,0,0,0,2.87-.8,2.52,2.52,0,0,0,1.08-2.12c0-1.52-1-2.47-2.9-2.82l-1.85-.33q-1.47-.27-1.47-1.32a1.16,1.16,0,0,1,.58-1,2.65,2.65,0,0,1,1.47-.37,2.32,2.32,0,0,1,2.4,1.48l1.34-.29C56.58,101,55.32,100.21,53.26,100.21Z"/><path class="cls-4" d="M60.75,97.12H59.17v1.65h1.58Zm0,3.35H59.23V110h1.48Z"/><path class="cls-4" d="M70.71,97.12H69.24v4.64a3.28,3.28,0,0,0-2.78-1.55,3.31,3.31,0,0,0-2.82,1.45,6.06,6.06,0,0,0-1.06,3.64,5.71,5.71,0,0,0,1.07,3.54,3.3,3.3,0,0,0,2.73,1.39,3.19,3.19,0,0,0,3-1.89V110h1.33ZM66.63,109a2,2,0,0,1-1.78-1,5.26,5.26,0,0,1-.65-2.9,4.62,4.62,0,0,1,.7-2.75,2.16,2.16,0,0,1,1.81-1,2.44,2.44,0,0,1,1.77.75,2.7,2.7,0,0,1,.76,2v2a2.92,2.92,0,0,1-.79,2A2.39,2.39,0,0,1,66.63,109Z"/><path class="cls-4" d="M76.94,100.21c-2.46,0-3.85.87-4.19,2.62l1.37.24c.24-1.15,1.11-1.72,2.6-1.72a3.1,3.1,0,0,1,1.48.31,1.4,1.4,0,0,1,.74.8,5.63,5.63,0,0,1,.17,1.63c-.57,0-1,0-1.25,0a7,7,0,0,0-4.15.92,2.87,2.87,0,0,0-1.22,2.37,2.71,2.71,0,0,0,.86,2,3.29,3.29,0,0,0,2.44.85,3.4,3.4,0,0,0,3.32-2c.06.84.11,1.41.17,1.71h1.45a8.11,8.11,0,0,1-.2-1.84v-4a4.38,4.38,0,0,0-.82-3A3.68,3.68,0,0,0,76.94,100.21Zm-.85,8.88a2.1,2.1,0,0,1-1.5-.49,1.55,1.55,0,0,1-.52-1.19,1.85,1.85,0,0,1,1-1.68,5.32,5.32,0,0,1,2.7-.56c.32,0,.77,0,1.37,0,0,.24,0,.45,0,.62a3.38,3.38,0,0,1-.86,2.29A2.8,2.8,0,0,1,76.09,109.09Z"/><path class="cls-4" d="M90.55,97.12H89.08v4.64a3.35,3.35,0,0,0-5.59-.1,5.93,5.93,0,0,0-1.07,3.64,5.71,5.71,0,0,0,1.07,3.54,3.31,3.31,0,0,0,2.73,1.39,3.19,3.19,0,0,0,3-1.89V110h1.33ZM86.48,109a2,2,0,0,1-1.79-1,5.26,5.26,0,0,1-.65-2.9,4.62,4.62,0,0,1,.7-2.75,2.17,2.17,0,0,1,1.81-1,2.45,2.45,0,0,1,1.77.75,2.7,2.7,0,0,1,.76,2v2a2.92,2.92,0,0,1-.79,2A2.39,2.39,0,0,1,86.48,109Z"/><path class="cls-1" d="M107.19,97.12h-1.26v8.65c0,.27,0,.58,0,.93v.9L99.78,97.12h-2V110h1.29v-9.54c0-.22,0-.49,0-.81l0-.85,6.62,11.2h1.55Z"/><path class="cls-4" d="M113.54,100.21c-2.45,0-3.85.87-4.18,2.62l1.36.24c.24-1.15,1.11-1.72,2.61-1.72a3.16,3.16,0,0,1,1.48.31,1.44,1.44,0,0,1,.74.8,5.63,5.63,0,0,1,.17,1.63c-.58,0-1,0-1.26,0a7,7,0,0,0-4.14.92,2.87,2.87,0,0,0-1.22,2.37,2.74,2.74,0,0,0,.85,2,3.32,3.32,0,0,0,2.45.85,3.41,3.41,0,0,0,3.32-2c.06.84.11,1.41.17,1.71h1.45a8.11,8.11,0,0,1-.2-1.84v-4a4.38,4.38,0,0,0-.82-3A3.69,3.69,0,0,0,113.54,100.21Zm-.84,8.88a2.13,2.13,0,0,1-1.51-.49,1.58,1.58,0,0,1-.52-1.19,1.85,1.85,0,0,1,1-1.68,5.37,5.37,0,0,1,2.71-.56c.31,0,.77,0,1.37,0,0,.24,0,.45,0,.62a3.38,3.38,0,0,1-.86,2.29A2.82,2.82,0,0,1,112.7,109.09Z"/><path class="cls-1" d="M123.05,100.21a3.49,3.49,0,0,0-3,1.43,5.83,5.83,0,0,0-1.08,3.6,6,6,0,0,0,1,3.55,3.78,3.78,0,0,0,5.39.56,4.33,4.33,0,0,0,1.25-2.47l-1.33-.24c-.33,1.58-1.1,2.38-2.31,2.38a2,2,0,0,1-1.83-1,5.16,5.16,0,0,1-.65-2.83,5,5,0,0,1,.65-2.7,2.09,2.09,0,0,1,1.87-1c1.27,0,2,.78,2.27,2.35l1.33-.25a4.22,4.22,0,0,0-1.16-2.4A3.35,3.35,0,0,0,123.05,100.21Z"/><path class="cls-4" d="M129.89,97.12h-1.58v1.65h1.58Zm0,3.35h-1.48V110h1.48Z"/><path class="cls-4" d="M136,100.21a4,4,0,0,0-3.06,1.35,5.19,5.19,0,0,0-1.22,3.62,5.82,5.82,0,0,0,1.09,3.61,3.6,3.6,0,0,0,3,1.44,3.93,3.93,0,0,0,3.15-1.41,5.32,5.32,0,0,0,1.22-3.62,5.59,5.59,0,0,0-1.13-3.57A3.72,3.72,0,0,0,136,100.21Zm0,8.81a2.35,2.35,0,0,1-1.87-.9,4.5,4.5,0,0,1-.76-3,4.36,4.36,0,0,1,.76-2.85,2.32,2.32,0,0,1,1.86-.89,2.44,2.44,0,0,1,1.86.88,4.26,4.26,0,0,1,.8,2.87,4.47,4.47,0,0,1-.77,2.9A2.32,2.32,0,0,1,136,109Z"/><path class="cls-1" d="M146.46,100.21a3.39,3.39,0,0,0-3,2v-1.74h-1.37V110h1.47v-5.21a3.54,3.54,0,0,1,.76-2.38,2.4,2.4,0,0,1,1.89-.91,2,2,0,0,1,1.39.54,2.48,2.48,0,0,1,.57,1.85V110h1.38v-5.49a7.69,7.69,0,0,0-.28-2.49,2.87,2.87,0,0,0-1-1.24A3,3,0,0,0,146.46,100.21Z"/><path class="cls-4" d="M155.8,100.21c-2.46,0-3.85.87-4.19,2.62l1.36.24c.25-1.15,1.12-1.72,2.61-1.72a3.13,3.13,0,0,1,1.48.31,1.39,1.39,0,0,1,.73.8,4.94,4.94,0,0,1,.18,1.63c-.58,0-1,0-1.26,0a7,7,0,0,0-4.14.92,2.87,2.87,0,0,0-1.22,2.37,2.78,2.78,0,0,0,.85,2,3.32,3.32,0,0,0,2.45.85,3.4,3.4,0,0,0,3.32-2,14.69,14.69,0,0,0,.17,1.71h1.45a8.13,8.13,0,0,1-.19-1.84v-4a4.38,4.38,0,0,0-.83-3A3.68,3.68,0,0,0,155.8,100.21Zm-.85,8.88a2.09,2.09,0,0,1-1.5-.49,1.56,1.56,0,0,1-.53-1.19,1.87,1.87,0,0,1,1-1.68,5.37,5.37,0,0,1,2.71-.56c.31,0,.77,0,1.37,0,0,.24,0,.45,0,.62a3.33,3.33,0,0,1-.86,2.29A2.8,2.8,0,0,1,155,109.09Z"/><rect class="cls-1" x="162.01" y="97.12" width="1.47" height="12.85"/><path class="cls-5" d="M6,114.86H4.22L.06,127.7H1.4l1.15-3.76H7.28l1.31,3.76h1.63Zm-3,7.88,2-6.17,2,6.17Z"/><path class="cls-5" d="M12.81,114.86H11.34V127.7h.71l.52-1.57a3.25,3.25,0,0,0,3,1.83,3.38,3.38,0,0,0,2.82-1.43A5.71,5.71,0,0,0,19.44,123a5.65,5.65,0,0,0-1.1-3.75,3.47,3.47,0,0,0-2.74-1.29,3.1,3.1,0,0,0-2.79,1.84Zm2.57,11.9a2.64,2.64,0,0,1-1.67-.66,2.9,2.9,0,0,1-.9-2.13v-2.14a3.15,3.15,0,0,1,.88-1.93,2.31,2.31,0,0,1,1.68-.74,2.07,2.07,0,0,1,1.85,1,5.44,5.44,0,0,1,.67,2.89,4.62,4.62,0,0,1-.69,2.69A2.14,2.14,0,0,1,15.38,126.76Z"/><path class="cls-5" d="M22.9,114.86H21.31v1.64H22.9Zm0,3.33H21.38v9.51h1.47Z"/><path class="cls-5" d="M29.16,117.93A4,4,0,0,0,26,119.34a6,6,0,0,0,0,7.26A4,4,0,0,0,29.12,128a4.17,4.17,0,0,0,2.56-.8,3.88,3.88,0,0,0,1.46-2l-1.37-.29a2.6,2.6,0,0,1-2.55,1.88,2.88,2.88,0,0,1-1.9-.76,3.66,3.66,0,0,1-.9-2.9H33.3a5.85,5.85,0,0,0-1.16-3.86A3.77,3.77,0,0,0,29.16,117.93Zm-2.68,4a3.28,3.28,0,0,1,.86-2.13,2.52,2.52,0,0,1,1.86-.79,2.27,2.27,0,0,1,1.4.44,2.46,2.46,0,0,1,.83,1,4.44,4.44,0,0,1,.26,1.43Z"/><path class="cls-6" d="M39.32,117.92a2.49,2.49,0,0,0-1.41.46,4.7,4.7,0,0,0-1.37,2v-2.23h-1.3v9.51h1.48v-5a3.68,3.68,0,0,1,.86-2.4,2.54,2.54,0,0,1,2-.92h.3V118A4.39,4.39,0,0,0,39.32,117.92Z"/><path class="cls-6" d="M43.57,115.68l-1.36.12-.07,2.39H40.46v1.16h1.68v5.73c0,1.92.91,2.88,2.74,2.88a10,10,0,0,0,1.35-.1V126.7a8.13,8.13,0,0,1-1.14.09,1.32,1.32,0,0,1-1.52-1.47v-6h2.12v-1.16H43.57Z"/><path class="cls-5" d="M51.18,117.93c-2.45,0-3.84.88-4.17,2.62l1.35.24c.25-1.14,1.11-1.71,2.61-1.71a3.16,3.16,0,0,1,1.48.3,1.49,1.49,0,0,1,.74.81,5.68,5.68,0,0,1,.17,1.63l-1.26,0a7,7,0,0,0-4.14.93,2.86,2.86,0,0,0-1.21,2.37,2.74,2.74,0,0,0,.85,2A3.28,3.28,0,0,0,50,128a3.4,3.4,0,0,0,3.32-2c.06.85.12,1.42.17,1.72H55a8.15,8.15,0,0,1-.19-1.85v-4a4.42,4.42,0,0,0-.82-3A3.71,3.71,0,0,0,51.18,117.93Zm-.84,8.9a2.09,2.09,0,0,1-1.5-.5,1.54,1.54,0,0,1-.52-1.18,1.84,1.84,0,0,1,1-1.68,5.27,5.27,0,0,1,2.71-.58c.31,0,.77,0,1.37.06,0,.23,0,.44,0,.62a3.34,3.34,0,0,1-.86,2.28A2.79,2.79,0,0,1,50.34,126.83Z"/><path class="cls-6" d="M69.51,118.19H68.27l-2.6,7.15-2.53-7.15h-1.5l3.28,9.32a4.63,4.63,0,0,1-1,2,1.74,1.74,0,0,1-1.18.4,4.34,4.34,0,0,1-1-.13v1.15a4.34,4.34,0,0,0,1.27.2c1.21,0,2.08-.76,2.63-2.29Z"/><path class="cls-5" d="M80.89,117.93c-2.46,0-3.85.88-4.18,2.62l1.35.24q.38-1.71,2.61-1.71a3.14,3.14,0,0,1,1.48.3,1.45,1.45,0,0,1,.74.81,5.68,5.68,0,0,1,.17,1.63l-1.25,0a7,7,0,0,0-4.15.93,2.87,2.87,0,0,0-1.22,2.37,2.71,2.71,0,0,0,.86,2,3.29,3.29,0,0,0,2.44.85,3.41,3.41,0,0,0,3.32-2c.06.85.11,1.42.17,1.72h1.45a8.15,8.15,0,0,1-.19-1.85v-4a4.42,4.42,0,0,0-.82-3A3.72,3.72,0,0,0,80.89,117.93Zm-.85,8.9a2.09,2.09,0,0,1-1.5-.5,1.54,1.54,0,0,1-.52-1.18,1.84,1.84,0,0,1,1-1.68,5.25,5.25,0,0,1,2.71-.58c.31,0,.77,0,1.37.06,0,.23,0,.44,0,.62a3.38,3.38,0,0,1-.85,2.28A2.82,2.82,0,0,1,80,126.83Z"/><path class="cls-5" d="M97.38,114.86H93.09V127.7h4.82a4.54,4.54,0,0,0,3.73-1.87,7.19,7.19,0,0,0,1.47-4.59,6.94,6.94,0,0,0-1.51-4.53A5.11,5.11,0,0,0,97.38,114.86Zm-2.69,11.47V116.2h2.6a3.57,3.57,0,0,1,3.18,1.52,6,6,0,0,1,1,3.41,6.15,6.15,0,0,1-1.07,3.77,3.64,3.64,0,0,1-3.13,1.43Z"/><path class="cls-5" d="M106.67,114.86h-1.59v1.64h1.59Zm0,3.33h-1.47v9.51h1.47Z"/><path class="cls-6" d="M111.93,117.93a3.79,3.79,0,0,0-2.55.81,2.51,2.51,0,0,0-.95,2,2.28,2.28,0,0,0,.7,1.74,3.6,3.6,0,0,0,1.86.88l2,.38c1.08.2,1.62.68,1.62,1.42a1.33,1.33,0,0,1-.63,1.17,2.88,2.88,0,0,1-1.56.41c-1.66,0-2.65-.6-3-1.8l-1.41.29c.54,1.83,1.92,2.73,4.16,2.73a4.7,4.7,0,0,0,2.87-.8,2.53,2.53,0,0,0,1.08-2.12c0-1.53-1-2.46-2.9-2.82l-1.84-.33c-1-.19-1.48-.62-1.48-1.33a1.17,1.17,0,0,1,.58-1,2.66,2.66,0,0,1,1.48-.37,2.31,2.31,0,0,1,2.39,1.48l1.35-.29Q115,117.94,111.93,117.93Z"/><path class="cls-6" d="M119.63,115.68l-1.37.12-.06,2.39h-1.68v1.16h1.68v5.73c0,1.92.91,2.88,2.75,2.88a10.08,10.08,0,0,0,1.34-.1V126.7a8.13,8.13,0,0,1-1.14.09,1.32,1.32,0,0,1-1.52-1.47v-6h2.12v-1.16h-2.12Z"/><path class="cls-5" d="M127.29,117.93c-2.46,0-3.85.88-4.18,2.62l1.35.24q.38-1.71,2.61-1.71a3.14,3.14,0,0,1,1.48.3,1.45,1.45,0,0,1,.74.81,5.68,5.68,0,0,1,.17,1.63l-1.25,0a7,7,0,0,0-4.14.93,2.85,2.85,0,0,0-1.23,2.37,2.75,2.75,0,0,0,.86,2,3.29,3.29,0,0,0,2.44.85,3.4,3.4,0,0,0,3.32-2c.06.85.11,1.42.17,1.72h1.46a7.6,7.6,0,0,1-.2-1.85v-4a4.42,4.42,0,0,0-.82-3A3.72,3.72,0,0,0,127.29,117.93Zm-.85,8.9a2.09,2.09,0,0,1-1.5-.5,1.54,1.54,0,0,1-.52-1.18,1.84,1.84,0,0,1,1-1.68,5.27,5.27,0,0,1,2.71-.58c.32,0,.78,0,1.37.06,0,.23,0,.44,0,.62a3.34,3.34,0,0,1-.86,2.28A2.79,2.79,0,0,1,126.44,126.83Z"/><path class="cls-6" d="M138,117.93a3.42,3.42,0,0,0-3,2v-1.75H133.6v9.51h1.48v-5.21a3.61,3.61,0,0,1,.75-2.38,2.39,2.39,0,0,1,1.9-.9,2,2,0,0,1,1.39.53,2.51,2.51,0,0,1,.56,1.85v6.11h1.38v-5.5a7.73,7.73,0,0,0-.27-2.48,3.05,3.05,0,0,0-2.83-1.79Z"/><path class="cls-6" d="M147.07,117.93a3.48,3.48,0,0,0-2.95,1.44A5.75,5.75,0,0,0,143,123a6,6,0,0,0,1,3.54,3.76,3.76,0,0,0,5.4.56,4.26,4.26,0,0,0,1.24-2.47l-1.33-.24c-.33,1.59-1.09,2.38-2.31,2.38a2.07,2.07,0,0,1-1.83-1,5.28,5.28,0,0,1-.65-2.84,5.07,5.07,0,0,1,.65-2.7,2.1,2.1,0,0,1,1.88-1c1.26,0,2,.78,2.26,2.35l1.33-.26a4.1,4.1,0,0,0-1.16-2.39A3.35,3.35,0,0,0,147.07,117.93Z"/><path class="cls-5" d="M154,114.86h-1.58v1.64H154Zm0,3.33h-1.47v9.51H154Z"/><path class="cls-5" d="M160.28,117.93c-2.46,0-3.85.88-4.19,2.62l1.36.24c.24-1.14,1.12-1.71,2.61-1.71a3.11,3.11,0,0,1,1.48.3,1.45,1.45,0,0,1,.74.81,5.68,5.68,0,0,1,.17,1.63l-1.26,0a7,7,0,0,0-4.14.93,2.87,2.87,0,0,0-1.22,2.37,2.71,2.71,0,0,0,.86,2,3.29,3.29,0,0,0,2.44.85,3.42,3.42,0,0,0,3.32-2c.06.85.11,1.42.16,1.72h1.46a8.13,8.13,0,0,1-.2-1.85v-4a4.37,4.37,0,0,0-.82-3A3.68,3.68,0,0,0,160.28,117.93Zm-.85,8.9a2.13,2.13,0,0,1-1.51-.5,1.57,1.57,0,0,1-.51-1.18,1.83,1.83,0,0,1,1-1.68,5.21,5.21,0,0,1,2.7-.58c.32,0,.77,0,1.37.06,0,.23,0,.44,0,.62a3.34,3.34,0,0,1-.86,2.28A2.8,2.8,0,0,1,159.43,126.83Z"/></svg>