<svg id="Capa_1" data-name="Capa 1" xmlns="http://www.w3.org/2000/svg" viewBox="0 0 637.75 210"><defs><style>.cls-1,.cls-2,.cls-5{fill:#ed7203;}.cls-1{fill-rule:evenodd;}.cls-3{fill:#005680;}.cls-4{fill:#f2ba01;}.cls-5{stroke:#ed7203;stroke-linecap:round;stroke-linejoin:round;stroke-width:0.17px;}</style></defs><path class="cls-1" d="M31.57,63.64a7.34,7.34,0,1,1-14.68,0,7.34,7.34,0,0,1,14.68,0Z"/><path class="cls-1" d="M48.14,47.26a7.34,7.34,0,1,1-7.34-7.34A7.36,7.36,0,0,1,48.14,47.26Z"/><path class="cls-1" d="M72.93,40a7.34,7.34,0,1,1-7.3-7.34A7.36,7.36,0,0,1,72.93,40Z"/><path class="cls-1" d="M97.81,47.31a7.34,7.34,0,1,1-7.38-7.39A7.32,7.32,0,0,1,97.81,47.31Z"/><ellipse class="cls-2" cx="107.08" cy="63.64" rx="7.34" ry="7.34"/><path class="cls-1" d="M190,150.06a7.34,7.34,0,1,0-14.67,0,7.34,7.34,0,1,0,14.67,0Z"/><path class="cls-1" d="M206.59,166.44a7.34,7.34,0,1,0-7.34,7.34A7.35,7.35,0,0,0,206.59,166.44Z"/><path class="cls-1" d="M231.38,173.7a7.34,7.34,0,1,0-7.3,7.34A7.35,7.35,0,0,0,231.38,173.7Z"/><path class="cls-1" d="M256.26,166.4a7.34,7.34,0,1,0-7.38,7.38A7.32,7.32,0,0,0,256.26,166.4Z"/><path class="cls-1" d="M272.87,150.06a7.34,7.34,0,1,0-7.33,7.34A7.34,7.34,0,0,0,272.87,150.06Z"/><path class="cls-3" d="M120.24,79.69h-3.8c-3.84,0-6.59,1.21-8.25,3.61s-2.56,6.47-2.56,12.17v41.2a89.12,89.12,0,0,1-2.48,22.48c-1.67,6.28-5.58,11.52-11.78,15.63s-14.46,6.16-24.84,6.16c-10,0-18.18-1.86-24.49-5.5s-10.42-8.38-12.4-14.15-2.95-14.65-2.95-26.71V94.89c0-5.2-.69-9-2.09-11.48s-4.34-3.72-8.87-3.72h-3.8V76.9H55.8v2.79H51.88a11.39,11.39,0,0,0-7.83,2.68c-2,1.74-3,5.93-3,12.52v44.3c0,8.41.81,15.08,2.44,20.08A20.78,20.78,0,0,0,52,170.63c4.07,2.6,9.18,3.88,15.46,3.88a37.79,37.79,0,0,0,16.82-3.84c5.23-2.56,9-6,11.23-10.51s3.38-12.48,3.38-24.11V94.89c0-6.75-.93-10.93-2.83-12.64s-4.54-2.56-8-2.56H84.32V76.9h35.92Z"/><path class="cls-3" d="M178.71,78.52h-2.09c-2.52,0-4.18.61-5,1.84s-1.24,3.49-1.24,6.75v49.68H168.8L129.94,89.36v36.28c0,3.87.54,6.25,1.6,7.19a6.91,6.91,0,0,0,4.67,1.4h2.07v1.62H117.76v-1.62h2a7.27,7.27,0,0,0,4.54-1.37c1.19-.93,1.78-3.33,1.78-7.22v-41a19.67,19.67,0,0,0-5.57-4.79,13,13,0,0,0-6-1.33V76.9h16l36,44.22v-34c0-3.84-.54-6.23-1.64-7.17a6.84,6.84,0,0,0-4.66-1.42h-2V76.9h20.52Z"/><path class="cls-4" d="M206.73,136.79,203.35,125h-16l-3.59,11.8H168.8L187.3,76.9h19.43l18.74,59.89Zm-16.31-24.87h9.73l-4.87-17.38-4.86,17.38Zm36.08,24.87V76.9h23.16q15.07,0,22.58,9a31.24,31.24,0,0,1,7.5,20.69q0,13.44-8,21.84t-20.9,8.4ZM244.87,123h4.79q4.56,0,7.7-4.43c2.08-3,3.13-7,3.13-12.06a21.78,21.78,0,0,0-2.79-11.27,8.84,8.84,0,0,0-8-4.75h-4.79Z"/><path class="cls-3" d="M318.58,76.73h2.54V92.67c0,3.2-.79,5.49-2.35,6.88a9,9,0,0,1-6.16,2.09q-4.25,0-6.29-2.15c-1.36-1.43-2-3.71-2-6.82V76.73h3.06V92.67a8.68,8.68,0,0,0,.67,4,3.91,3.91,0,0,0,2,1.72,7.26,7.26,0,0,0,2.81.56,5.73,5.73,0,0,0,4.29-1.5c1-1,1.47-2.58,1.47-4.79V76.73Zm22.1,24.43h-2.63V89.54A4.69,4.69,0,0,0,337,86a3.74,3.74,0,0,0-2.65-1,4.59,4.59,0,0,0-3.61,1.72,6.75,6.75,0,0,0-1.45,4.53v9.92h-2.81V83.08h2.61v3.33c1.47-2.56,3.36-3.83,5.7-3.83a5.71,5.71,0,0,1,3.45,1A5.62,5.62,0,0,1,340.15,86a14.3,14.3,0,0,1,.53,4.72v10.46Zm8.52-24.43v3.11h-3V76.73Zm-.1,6.35v18.08h-2.8V83.08Zm18.84,0-6.24,18.08h-2.92l-6.46-18.08h3.12l5,14.69,5-14.69Zm14.64,12.69,2.61.53a7.39,7.39,0,0,1-2.79,3.83,8.06,8.06,0,0,1-4.88,1.51,7.63,7.63,0,0,1-6-2.6,11.36,11.36,0,0,1,.09-13.8,7.67,7.67,0,0,1,6-2.66,7.25,7.25,0,0,1,5.7,2.45q2.15,2.44,2.21,7.34H372.36q0,4.09,1.72,5.53a5.59,5.59,0,0,0,3.63,1.43c2.3,0,3.93-1.19,4.87-3.56Zm-.16-5.5a8.27,8.27,0,0,0-.5-2.7,4.62,4.62,0,0,0-1.58-2,4.29,4.29,0,0,0-2.67-.83,4.78,4.78,0,0,0-3.55,1.5,6.17,6.17,0,0,0-1.63,4Zm10.1,10.89h-2.81V83.08h2.47V87.3a9.2,9.2,0,0,1,2.62-3.87,4.73,4.73,0,0,1,2.7-.89c.28,0,.66,0,1.11.07V85.3H398A5,5,0,0,0,394.17,87a7.09,7.09,0,0,0-1.65,4.57v9.56Zm7.06-4.7,2.68-.55c.6,2.28,2.48,3.42,5.66,3.42a5.38,5.38,0,0,0,3-.79,2.49,2.49,0,0,0,1.22-2.22c0-1.42-1-2.32-3.1-2.7l-3.81-.72a6.9,6.9,0,0,1-3.56-1.68,4.35,4.35,0,0,1-1.32-3.31,4.78,4.78,0,0,1,1.81-3.8A7.26,7.26,0,0,1,407,82.58q5.89,0,7.27,4.6l-2.58.55c-.74-1.88-2.26-2.83-4.56-2.83a5.15,5.15,0,0,0-2.82.71,2.22,2.22,0,0,0-1.1,2c0,1.34.94,2.18,2.81,2.52l3.52.63c3.69.66,5.53,2.45,5.53,5.35a4.8,4.8,0,0,1-2.05,4,9,9,0,0,1-5.48,1.53q-6.42,0-7.94-5.18ZM421.9,76.73v3.11h-3V76.73Zm-.09,6.35v18.08H419V83.08Zm19.72-6.35v24.43H439v-3.1a6.09,6.09,0,0,1-5.71,3.58A6.32,6.32,0,0,1,428.05,99a10.77,10.77,0,0,1-2-6.72,11.39,11.39,0,0,1,2-6.92,6.34,6.34,0,0,1,5.36-2.76,6.22,6.22,0,0,1,5.32,3V76.73Zm-2.81,13.33a5.13,5.13,0,0,0-1.45-3.81,4.65,4.65,0,0,0-3.38-1.44,4.09,4.09,0,0,0-3.44,1.87,8.76,8.76,0,0,0-1.36,5.22,10.11,10.11,0,0,0,1.25,5.53,3.86,3.86,0,0,0,3.41,1.9,4.59,4.59,0,0,0,3.47-1.65,5.54,5.54,0,0,0,1.5-3.86V90.06Zm22.58,11.1h-2.8c-.1-.58-.21-1.66-.31-3.26a6.54,6.54,0,0,1-6.34,3.74,6.34,6.34,0,0,1-4.67-1.62,5.18,5.18,0,0,1-1.63-3.86,5.43,5.43,0,0,1,2.33-4.5q2.33-1.77,7.91-1.77c.5,0,1.3,0,2.4.08a10,10,0,0,0-.34-3.1,2.78,2.78,0,0,0-1.4-1.54,6.18,6.18,0,0,0-2.83-.57q-4.28,0-5,3.26l-2.6-.45c.64-3.33,3.29-5,8-5q3.75,0,5.31,1.65T460.9,90v7.68a14.34,14.34,0,0,0,.4,3.51Zm-3.11-9c-1.15-.06-2-.1-2.62-.1a10.2,10.2,0,0,0-5.17,1.09,3.5,3.5,0,0,0-1.85,3.19,3,3,0,0,0,1,2.25,4,4,0,0,0,2.87.94,5.33,5.33,0,0,0,4.18-1.85,6.33,6.33,0,0,0,1.63-4.33c0-.34,0-.73,0-1.19Zm22.44-15.38v24.43h-2.55v-3.1a6.1,6.1,0,0,1-5.71,3.58A6.31,6.31,0,0,1,467.16,99a10.77,10.77,0,0,1-2-6.72,11.39,11.39,0,0,1,2-6.92,6.32,6.32,0,0,1,5.36-2.76,6.22,6.22,0,0,1,5.32,3V76.73Zm-2.8,13.33a5.13,5.13,0,0,0-1.45-3.81A4.67,4.67,0,0,0,473,84.81a4.08,4.08,0,0,0-3.44,1.87,8.69,8.69,0,0,0-1.36,5.22,10.11,10.11,0,0,0,1.25,5.53,3.86,3.86,0,0,0,3.4,1.9,4.56,4.56,0,0,0,3.47-1.65,5.51,5.51,0,0,0,1.51-3.86V90.06Zm35.81,11.1h-3L498,79.86l0,1.61c0,.61.05,1.12.05,1.54v18.15h-2.47V76.73h3.83L511.3,96.65l0-1.71c0-.67,0-1.26,0-1.77V76.73h2.41v24.43Zm20,0h-2.79c-.1-.58-.21-1.66-.32-3.26a6.52,6.52,0,0,1-6.34,3.74,6.33,6.33,0,0,1-4.66-1.62,5.18,5.18,0,0,1-1.63-3.86,5.41,5.41,0,0,1,2.33-4.5q2.32-1.77,7.9-1.77c.51,0,1.31,0,2.4.08a10.37,10.37,0,0,0-.33-3.1,2.8,2.8,0,0,0-1.41-1.54,6.11,6.11,0,0,0-2.82-.57q-4.28,0-5,3.26l-2.59-.45q.95-5,8-5,3.74,0,5.31,1.65T533.25,90v7.68a14.85,14.85,0,0,0,.39,3.51Zm-3.11-9c-1.15-.06-2-.1-2.61-.1a10.15,10.15,0,0,0-5.17,1.09,3.5,3.5,0,0,0-1.85,3.19,3,3,0,0,0,1,2.25,4,4,0,0,0,2.87.94,5.3,5.3,0,0,0,4.17-1.85,6.29,6.29,0,0,0,1.64-4.33c0-.34,0-.73-.05-1.19Zm19,2.71,2.54.45a8.08,8.08,0,0,1-2.38,4.68,7.2,7.2,0,0,1-10.3-1.07,11.36,11.36,0,0,1-1.95-6.73,11,11,0,0,1,2.06-6.84,6.69,6.69,0,0,1,5.63-2.73,6.39,6.39,0,0,1,4.73,1.76,7.91,7.91,0,0,1,2.21,4.55l-2.54.49c-.48-3-1.92-4.48-4.33-4.48a4,4,0,0,0-3.58,2A9.51,9.51,0,0,0,540.39,92a9.88,9.88,0,0,0,1.25,5.39,3.91,3.91,0,0,0,3.49,1.93c2.32,0,3.8-1.51,4.42-4.51Zm9.29-18.09v3.11h-3V76.73Zm-.09,6.35v18.08h-2.81V83.08Zm12.08,18.56A6.86,6.86,0,0,1,565,98.88a11,11,0,0,1-2.08-6.83,9.79,9.79,0,0,1,2.34-6.89,7.56,7.56,0,0,1,5.83-2.58,7.12,7.12,0,0,1,5.9,2.71,10.57,10.57,0,0,1,2.15,6.77,10.12,10.12,0,0,1-2.32,6.9,7.63,7.63,0,0,1-6,2.68Zm.21-2.31a4.49,4.49,0,0,0,3.6-1.77q1.44-1.77,1.44-5.51c0-2.51-.5-4.33-1.52-5.45A4.65,4.65,0,0,0,571,84.9a4.45,4.45,0,0,0-3.54,1.72c-1,1.13-1.45,2.94-1.45,5.41s.49,4.48,1.45,5.61A4.53,4.53,0,0,0,571,99.33Zm26.58,1.83H595V89.54A4.69,4.69,0,0,0,593.9,86a3.74,3.74,0,0,0-2.65-1,4.55,4.55,0,0,0-3.6,1.72,6.76,6.76,0,0,0-1.46,4.53v9.92h-2.81V83.08H586v3.33c1.46-2.56,3.36-3.83,5.7-3.83a5.79,5.79,0,0,1,5.4,3.4,14.37,14.37,0,0,1,.52,4.72v10.46Zm19.77,0H614.6c-.1-.58-.21-1.66-.32-3.26a6.52,6.52,0,0,1-6.34,3.74,6.33,6.33,0,0,1-4.66-1.62,5.18,5.18,0,0,1-1.63-3.86,5.42,5.42,0,0,1,2.32-4.5c1.56-1.18,4.19-1.77,7.91-1.77.5,0,1.3,0,2.4.08a10.37,10.37,0,0,0-.33-3.1,2.8,2.8,0,0,0-1.41-1.54,6.11,6.11,0,0,0-2.82-.57q-4.28,0-5,3.26l-2.59-.45q.95-5,8-5,3.74,0,5.31,1.65T617,90v7.68a14.85,14.85,0,0,0,.39,3.51Zm-3.11-9c-1.14-.06-2-.1-2.61-.1a10.15,10.15,0,0,0-5.17,1.09,3.5,3.5,0,0,0-1.85,3.19,3,3,0,0,0,1,2.25,4,4,0,0,0,2.87.94,5.3,5.3,0,0,0,4.17-1.85,6.29,6.29,0,0,0,1.64-4.33c0-.34,0-.73-.05-1.19Zm11.15,9h-2.81V76.73h2.81Z"/><path class="cls-5" d="M321.1,136.89H318l-2.47-7.14h-9l-2.19,7.14h-2.55l7.92-24.42h3.49l8,24.42Zm-6.24-9.43-3.76-11.74-3.79,11.74Zm10.25,9.43h-1.36V112.47h2.81v9.35c1.29-2.34,3.07-3.5,5.33-3.5a6.63,6.63,0,0,1,5.22,2.45c1.39,1.64,2.1,4,2.1,7.12a10.81,10.81,0,0,1-2.07,6.75,6.43,6.43,0,0,1-5.38,2.74,6.2,6.2,0,0,1-5.65-3.47l-1,3Zm1.45-7.08a5.46,5.46,0,0,0,1.71,4,4.92,4.92,0,0,0,3.19,1.26,4,4,0,0,0,3.46-1.87,8.67,8.67,0,0,0,1.32-5.1,10.13,10.13,0,0,0-1.27-5.48,4,4,0,0,0-3.53-2,4.36,4.36,0,0,0-3.19,1.42,6,6,0,0,0-1.69,3.67v4.07Zm19.77-17.34v3.11h-3v-3.11Zm-.09,6.35v18.07h-2.81V118.82Zm17.53,12.69,2.62.53a7.39,7.39,0,0,1-2.79,3.83,8.14,8.14,0,0,1-4.89,1.51,7.59,7.59,0,0,1-6-2.61,9.92,9.92,0,0,1-2.29-6.82,10.07,10.07,0,0,1,2.38-7,7.66,7.66,0,0,1,6-2.65,7.24,7.24,0,0,1,5.7,2.45c1.44,1.64,2.18,4.08,2.21,7.34H353.56c0,2.73.57,4.58,1.71,5.53a5.64,5.64,0,0,0,3.64,1.43q3.45,0,4.86-3.56Zm-.15-5.5a8,8,0,0,0-.51-2.7,4.55,4.55,0,0,0-1.57-2,4.29,4.29,0,0,0-2.67-.83,4.77,4.77,0,0,0-3.55,1.5,6.23,6.23,0,0,0-1.64,4Zm10.1,10.88h-2.81V118.82h2.47V123a9.11,9.11,0,0,1,2.62-3.87,4.72,4.72,0,0,1,2.69-.89,10.23,10.23,0,0,1,1.11.07V121h-.57a5,5,0,0,0-3.87,1.73,7.08,7.08,0,0,0-1.64,4.57v9.55ZM392.4,135v2.22a20.27,20.27,0,0,1-2.57.2q-5.25,0-5.25-5.48V121h-3.2v-2.2h3.2l.13-4.55,2.61-.25v4.8h4V121h-4v11.35c0,1.85,1,2.79,2.9,2.79a14,14,0,0,0,2.18-.2Zm17.23,1.93h-2.79c-.11-.57-.21-1.65-.32-3.25a6.52,6.52,0,0,1-6.34,3.74,6.32,6.32,0,0,1-4.66-1.62,5.18,5.18,0,0,1-1.63-3.86,5.4,5.4,0,0,1,2.32-4.5q2.32-1.77,7.91-1.77c.5,0,1.3,0,2.4.08a10.37,10.37,0,0,0-.33-3.1,2.76,2.76,0,0,0-1.41-1.54,6,6,0,0,0-2.82-.57q-4.27,0-5,3.26l-2.59-.45q.94-5,8-5,3.74,0,5.31,1.65c1,1.11,1.56,3,1.56,5.74v7.68a14.71,14.71,0,0,0,.39,3.5Zm-3.11-9c-1.15-.06-2-.1-2.61-.1a10.15,10.15,0,0,0-5.17,1.09,3.5,3.5,0,0,0-1.85,3.18,3,3,0,0,0,1,2.26,4,4,0,0,0,2.87.93,5.31,5.31,0,0,0,4.17-1.84,6.29,6.29,0,0,0,1.64-4.33c0-.34,0-.73-.05-1.19Zm33.11-9L432.39,139q-1.58,4.37-5,4.36a8.63,8.63,0,0,1-2.42-.38V140.8a9.11,9.11,0,0,0,1.89.25,3.35,3.35,0,0,0,2.24-.77,8.7,8.7,0,0,0,1.8-3.73l-6.25-17.73h2.86l4.83,13.58,5-13.58ZM469,136.89h-2.79a30.31,30.31,0,0,1-.32-3.25,6.54,6.54,0,0,1-6.34,3.74,6.34,6.34,0,0,1-4.67-1.62,5.22,5.22,0,0,1-1.63-3.86,5.41,5.41,0,0,1,2.33-4.5q2.32-1.77,7.91-1.77c.5,0,1.3,0,2.4.08a10,10,0,0,0-.34-3.1,2.75,2.75,0,0,0-1.4-1.54,6,6,0,0,0-2.82-.57q-4.29,0-5,3.26l-2.6-.45q1-5,8-5,3.74,0,5.3,1.65c1,1.11,1.57,3,1.57,5.74v7.68a14.21,14.21,0,0,0,.39,3.5Zm-3.11-9c-1.15-.06-2-.1-2.62-.1a10.2,10.2,0,0,0-5.17,1.09,3.49,3.49,0,0,0-1.84,3.18,3,3,0,0,0,1,2.26,4,4,0,0,0,2.87.93,5.33,5.33,0,0,0,4.18-1.84,6.34,6.34,0,0,0,1.64-4.33c0-.34,0-.73-.05-1.19Zm21,9V112.47H495a9.79,9.79,0,0,1,8,3.52,13.15,13.15,0,0,1,2.89,8.62,13.64,13.64,0,0,1-2.81,8.73,8.71,8.71,0,0,1-7.12,3.55Zm3.06-2.59h4.95a7,7,0,0,0,6-2.72,11.67,11.67,0,0,0,2-7.18,11.35,11.35,0,0,0-1.94-6.49,6.8,6.8,0,0,0-6.08-2.89h-4.95V134.3Zm23.3-21.83v3.11h-3v-3.11Zm-.09,6.35v18.07h-2.81V118.82Zm3.17,13.38,2.68-.55q.9,3.42,5.65,3.42a5.39,5.39,0,0,0,3-.79,2.51,2.51,0,0,0,1.21-2.22c0-1.41-1-2.32-3.09-2.7l-3.81-.72a6.86,6.86,0,0,1-3.56-1.68,4.36,4.36,0,0,1-1.32-3.31,4.79,4.79,0,0,1,1.81-3.81,7.25,7.25,0,0,1,4.86-1.52q5.88,0,7.26,4.6l-2.57.55q-1.11-2.82-4.56-2.82a5.13,5.13,0,0,0-2.82.7,2.22,2.22,0,0,0-1.11,2c0,1.34.95,2.18,2.81,2.52l3.53.63c3.69.66,5.53,2.45,5.53,5.35a4.8,4.8,0,0,1-2.06,4,9,9,0,0,1-5.48,1.53q-6.42,0-7.93-5.18ZM543.88,135v2.22a20.28,20.28,0,0,1-2.58.2c-3.49,0-5.25-1.83-5.25-5.48V121h-3.2v-2.2h3.2l.13-4.55,2.62-.25v4.8h4V121h-4v11.35c0,1.85,1,2.79,2.89,2.79a14.11,14.11,0,0,0,2.19-.2Zm17.22,1.93h-2.79c-.1-.57-.21-1.65-.31-3.25a6.54,6.54,0,0,1-6.34,3.74,6.34,6.34,0,0,1-4.67-1.62,5.18,5.18,0,0,1-1.63-3.86,5.41,5.41,0,0,1,2.33-4.5q2.32-1.77,7.91-1.77c.5,0,1.3,0,2.4.08a10,10,0,0,0-.34-3.1,2.75,2.75,0,0,0-1.4-1.54,6.05,6.05,0,0,0-2.83-.57q-4.27,0-5,3.26l-2.6-.45c.64-3.33,3.29-5,8-5,2.49,0,4.27.55,5.31,1.65s1.56,3,1.56,5.74v7.68a14.71,14.71,0,0,0,.39,3.5Zm-3.1-9c-1.15-.06-2-.1-2.62-.1a10.2,10.2,0,0,0-5.17,1.09,3.49,3.49,0,0,0-1.84,3.18,3,3,0,0,0,1,2.26,4,4,0,0,0,2.87.93,5.33,5.33,0,0,0,4.18-1.84A6.33,6.33,0,0,0,558,129c0-.34,0-.73,0-1.19Zm22.57,9h-2.63V125.28a4.69,4.69,0,0,0-1.09-3.53,3.74,3.74,0,0,0-2.65-1,4.52,4.52,0,0,0-3.6,1.72,6.76,6.76,0,0,0-1.46,4.53v9.91h-2.81V118.82H569v3.33c1.46-2.56,3.36-3.83,5.7-3.83a5.79,5.79,0,0,1,5.4,3.4,14.37,14.37,0,0,1,.52,4.72v10.45Zm16.3-6.33,2.54.44a8,8,0,0,1-2.38,4.68,7.18,7.18,0,0,1-10.3-1.06,11.36,11.36,0,0,1-2-6.73,11,11,0,0,1,2.06-6.84,6.69,6.69,0,0,1,5.63-2.73,6.39,6.39,0,0,1,4.73,1.76,7.91,7.91,0,0,1,2.21,4.55l-2.54.49q-.72-4.47-4.33-4.47a4,4,0,0,0-3.58,2,9.51,9.51,0,0,0-1.25,5.13,9.88,9.88,0,0,0,1.25,5.39,3.91,3.91,0,0,0,3.49,1.93q3.49,0,4.42-4.51Zm9.29-18.09v3.11h-3v-3.11Zm-.09,6.35v18.07h-2.81V118.82Zm19.75,18.07H623a30.31,30.31,0,0,1-.32-3.25,6.53,6.53,0,0,1-6.34,3.74,6.3,6.3,0,0,1-4.66-1.62,5.18,5.18,0,0,1-1.63-3.86,5.4,5.4,0,0,1,2.32-4.5q2.33-1.77,7.91-1.77c.5,0,1.3,0,2.4.08a10,10,0,0,0-.34-3.1,2.75,2.75,0,0,0-1.4-1.54,6,6,0,0,0-2.82-.57c-2.85,0-4.52,1.09-5,3.26l-2.59-.45q.95-5,8-5,3.74,0,5.3,1.65c1,1.11,1.57,3,1.57,5.74v7.68a14.71,14.71,0,0,0,.39,3.5Zm-3.11-9c-1.15-.06-2-.1-2.61-.1a10.21,10.21,0,0,0-5.18,1.09,3.5,3.5,0,0,0-1.84,3.18,3,3,0,0,0,1,2.26,4,4,0,0,0,2.86.93,5.31,5.31,0,0,0,4.18-1.84,6.29,6.29,0,0,0,1.64-4.33C622.76,128.7,622.74,128.31,622.71,127.85Z"/></svg>